<svg xmlns="http://www.w3.org/2000/svg" xmlns:xlink="http://www.w3.org/1999/xlink" width="500" zoomAndPan="magnify" viewBox="0 0 375 374.999991" height="500" preserveAspectRatio="xMidYMid meet" version="1.0"><defs><g/><clipPath id="12770fb93e"><path d="M 187.5 0 C 83.945312 0 0 83.945312 0 187.5 C 0 291.054688 83.945312 375 187.5 375 C 291.054688 375 375 291.054688 375 187.5 C 375 83.945312 291.054688 0 187.5 0 Z M 187.5 0 " clip-rule="nonzero"/></clipPath></defs><rect x="-37.5" width="450" fill="#ffffff" y="-37.499999" height="449.999989" fill-opacity="1"/><rect x="-37.5" width="450" fill="#f1efe7" y="-37.499999" height="449.999989" fill-opacity="1"/><g clip-path="url(#12770fb93e)"><rect x="-37.5" width="450" fill="#f1efe7" y="-37.499999" height="449.999989" fill-opacity="1"/></g><g fill="#101010" fill-opacity="1"><g transform="translate(53.698043, 257.370057)"><g><path d="M 80.921875 -0.4375 C 85.878906 -1.75 90.363281 -3.171875 94.375 -4.703125 C 98.382812 -6.234375 102.171875 -8.164062 105.734375 -10.5 C 109.304688 -12.832031 112.769531 -15.640625 116.125 -18.921875 C 119.476562 -22.203125 123.050781 -26.28125 126.84375 -31.15625 C 130.632812 -36.039062 134.753906 -41.835938 139.203125 -48.546875 C 143.648438 -55.253906 148.71875 -63.203125 154.40625 -72.390625 C 159.65625 -80.703125 165.234375 -88.503906 171.140625 -95.796875 C 177.046875 -103.085938 182.910156 -109.5 188.734375 -115.03125 C 183.785156 -123.34375 176.898438 -129.796875 168.078125 -134.390625 C 159.253906 -138.984375 149.300781 -141.28125 138.21875 -141.28125 C 126.695312 -141.28125 115.175781 -138.835938 103.65625 -133.953125 C 92.144531 -129.066406 81.578125 -122.03125 71.953125 -112.84375 C 66.847656 -108.039062 62.253906 -102.976562 58.171875 -97.65625 C 54.085938 -92.332031 50.625 -86.898438 47.78125 -81.359375 C 44.9375 -75.816406 42.710938 -70.3125 41.109375 -64.84375 C 39.503906 -59.375 38.703125 -54.234375 38.703125 -49.421875 C 38.703125 -41.691406 41.21875 -35.53125 46.25 -30.9375 C 51.28125 -26.351562 57.953125 -24.0625 66.265625 -24.0625 C 73.265625 -24.0625 80.484375 -26.171875 87.921875 -30.390625 C 95.359375 -34.617188 102.207031 -40.015625 108.46875 -46.578125 C 114.738281 -53.140625 119.878906 -60.394531 123.890625 -68.34375 C 127.898438 -76.289062 129.90625 -83.910156 129.90625 -91.203125 C 129.90625 -95.867188 128.519531 -99.695312 125.75 -102.6875 C 122.976562 -105.675781 119.476562 -107.171875 115.25 -107.171875 C 110.15625 -107.171875 104.765625 -105.347656 99.078125 -101.703125 C 93.390625 -98.054688 88.101562 -93.5 83.21875 -88.03125 C 78.332031 -82.5625 74.285156 -76.617188 71.078125 -70.203125 C 67.867188 -63.785156 66.265625 -57.734375 66.265625 -52.046875 C 66.265625 -48.546875 67.175781 -45.773438 69 -43.734375 C 70.820312 -41.691406 73.265625 -40.742188 76.328125 -40.890625 C 77.203125 -40.890625 77.640625 -40.671875 77.640625 -40.234375 C 77.640625 -39.648438 76.984375 -39.359375 75.671875 -39.359375 C 71.585938 -39.359375 68.304688 -41.035156 65.828125 -44.390625 C 63.347656 -47.742188 62.109375 -52.117188 62.109375 -57.515625 C 62.109375 -63.347656 63.75 -69.289062 67.03125 -75.34375 C 70.3125 -81.394531 74.503906 -86.898438 79.609375 -91.859375 C 84.710938 -96.816406 90.4375 -100.898438 96.78125 -104.109375 C 103.125 -107.316406 109.28125 -108.921875 115.25 -108.921875 C 120.207031 -108.921875 124.21875 -107.242188 127.28125 -103.890625 C 130.34375 -100.535156 131.875 -96.160156 131.875 -90.765625 C 131.875 -85.804688 130.925781 -80.664062 129.03125 -75.34375 C 127.132812 -70.019531 124.546875 -64.804688 121.265625 -59.703125 C 117.984375 -54.597656 114.15625 -49.75 109.78125 -45.15625 C 105.414062 -40.5625 100.828125 -36.550781 96.015625 -33.125 C 91.203125 -29.707031 86.242188 -27.015625 81.140625 -25.046875 C 76.035156 -23.078125 71.078125 -22.09375 66.265625 -22.09375 C 61.160156 -22.09375 56.457031 -22.96875 52.15625 -24.71875 C 47.851562 -26.46875 44.171875 -28.867188 41.109375 -31.921875 C 38.046875 -34.984375 35.640625 -38.664062 33.890625 -42.96875 C 32.148438 -47.269531 31.28125 -51.972656 31.28125 -57.078125 C 31.28125 -63.203125 32.332031 -69.4375 34.4375 -75.78125 C 36.550781 -82.125 39.578125 -88.285156 43.515625 -94.265625 C 47.453125 -100.242188 52.15625 -105.890625 57.625 -111.203125 C 63.09375 -116.523438 69.179688 -121.300781 75.890625 -125.53125 C 84.785156 -131.070312 94.769531 -135.410156 105.84375 -138.546875 C 116.925781 -141.679688 127.9375 -143.25 138.875 -143.25 C 149.8125 -143.25 159.832031 -140.988281 168.9375 -136.46875 C 178.050781 -131.945312 185.453125 -125.53125 191.140625 -117.21875 C 199.742188 -125.09375 208.53125 -131.070312 217.5 -135.15625 C 226.46875 -139.238281 235.328125 -141.28125 244.078125 -141.28125 C 253.109375 -141.28125 260.394531 -138.398438 265.9375 -132.640625 C 271.476562 -126.878906 274.25 -119.257812 274.25 -109.78125 C 274.25 -108.039062 274.140625 -106.148438 273.921875 -104.109375 C 273.703125 -102.066406 273.410156 -100.171875 273.046875 -98.421875 C 272.679688 -96.671875 272.28125 -95.210938 271.84375 -94.046875 C 271.40625 -92.878906 270.96875 -92.296875 270.53125 -92.296875 C 270.09375 -92.296875 269.875 -92.515625 269.875 -92.953125 C 269.875 -93.390625 269.945312 -93.828125 270.09375 -94.265625 C 270.820312 -96.015625 271.40625 -98.421875 271.84375 -101.484375 C 272.28125 -104.546875 272.5 -107.238281 272.5 -109.5625 C 272.5 -118.601562 269.800781 -125.820312 264.40625 -131.21875 C 259.007812 -136.613281 251.796875 -139.3125 242.765625 -139.3125 C 225.410156 -139.3125 208.710938 -131.144531 192.671875 -114.8125 C 195.878906 -108.84375 198.210938 -102.976562 199.671875 -97.21875 C 201.128906 -91.457031 201.859375 -85.296875 201.859375 -78.734375 C 201.859375 -67.066406 199.453125 -56.128906 194.640625 -45.921875 C 189.828125 -35.722656 183.265625 -26.832031 174.953125 -19.25 C 166.648438 -11.664062 156.847656 -5.722656 145.546875 -1.421875 C 134.242188 2.878906 122.175781 5.03125 109.34375 5.03125 C 104.6875 5.03125 99.953125 4.773438 95.140625 4.265625 C 90.328125 3.753906 84.128906 2.914062 76.546875 1.75 C 72.898438 2.476562 69.691406 3.023438 66.921875 3.390625 C 64.148438 3.753906 61.453125 4.082031 58.828125 4.375 C 56.203125 4.664062 53.578125 4.847656 50.953125 4.921875 C 48.328125 4.992188 45.335938 5.03125 41.984375 5.03125 C 32.953125 5.03125 25.992188 4.554688 21.109375 3.609375 C 16.222656 2.660156 13.78125 1.238281 13.78125 -0.65625 C 13.78125 -2.550781 16.078125 -4.191406 20.671875 -5.578125 C 25.265625 -6.960938 30.617188 -7.65625 36.734375 -7.65625 C 39.066406 -7.65625 41.328125 -7.582031 43.515625 -7.4375 C 45.703125 -7.289062 48.363281 -6.960938 51.5 -6.453125 C 54.632812 -5.941406 58.5 -5.210938 63.09375 -4.265625 C 67.6875 -3.316406 73.628906 -2.039062 80.921875 -0.4375 Z M 190.265625 -112.1875 C 187.785156 -109.425781 185.523438 -106.660156 183.484375 -103.890625 C 181.453125 -101.117188 179.414062 -98.09375 177.375 -94.8125 C 175.332031 -91.53125 173.253906 -87.921875 171.140625 -83.984375 C 169.023438 -80.046875 166.800781 -75.671875 164.46875 -70.859375 C 159.65625 -59.921875 154.804688 -50.625 149.921875 -42.96875 C 145.035156 -35.320312 139.566406 -28.800781 133.515625 -23.40625 C 127.460938 -18.007812 120.5 -13.453125 112.625 -9.734375 C 104.757812 -6.015625 95.359375 -2.625 84.421875 0.4375 C 89.085938 1.457031 93.898438 2.1875 98.859375 2.625 C 103.816406 3.0625 108.625 3.28125 113.28125 3.28125 C 140.695312 3.28125 162.789062 -9.914062 179.5625 -36.3125 C 184.800781 -44.46875 188.84375 -52.882812 191.6875 -61.5625 C 194.53125 -70.238281 195.953125 -78.660156 195.953125 -86.828125 C 195.953125 -91.492188 195.515625 -95.796875 194.640625 -99.734375 C 193.765625 -103.671875 192.304688 -107.820312 190.265625 -112.1875 Z M 72.828125 1.09375 C 63.492188 -0.21875 55.109375 -1.238281 47.671875 -1.96875 C 40.234375 -2.695312 33.96875 -3.0625 28.875 -3.0625 C 24.207031 -3.0625 20.890625 -2.878906 18.921875 -2.515625 C 16.953125 -2.148438 15.96875 -1.53125 15.96875 -0.65625 C 15.96875 1.820312 25.296875 3.0625 43.953125 3.0625 C 50.078125 3.0625 55.363281 2.914062 59.8125 2.625 C 64.257812 2.332031 68.597656 1.820312 72.828125 1.09375 Z M 72.828125 1.09375 "/></g></g></g></svg>